<svg width="130" height="476" viewBox="0 0 130 476" fill="none" xmlns="http://www.w3.org/2000/svg">
<path d="M74.9266 18.6308C78.2582 21.2011 80.5008 24.3451 81.8926 29.0447C83.6449 38.5836 82.4034 51.3338 79.322 60.2058C78.8372 60.2058 78.3525 60.2058 77.853 60.2058C77.8833 61.2341 77.9136 62.2624 77.9448 63.3219C77.853 66.7908 77.853 66.7908 76.3841 69.6129C76.1828 71.5218 76.1828 71.5218 76.2406 73.5926C76.2454 74.3474 76.2501 75.1023 76.255 75.88C76.2673 76.664 76.2796 77.448 76.2923 78.2557C76.2989 79.0506 76.3055 79.8455 76.3124 80.6644C76.3297 82.625 76.356 84.5854 76.3841 86.5457C83.1031 91.7473 89.7838 94.5959 97.4999 96.4232C103.46 97.9047 107.53 99.0763 111.133 105.595C115.306 113.986 115.541 120.835 115.16 130.469C115.031 136.243 115.743 140.142 117.58 145.394C118.683 149.186 118.593 152.807 118.478 156.805C118.471 157.56 118.464 158.315 118.456 159.093C118.392 163.518 118.037 167.771 117.514 172.15C116.803 181.541 118.134 188.396 120.842 196.932C124.791 209.524 124.252 224.409 122.259 237.556C121.567 242.316 121.174 245.991 123.387 250.185C125.639 255.033 125.258 260.21 125.18 265.692C125.185 266.721 125.19 267.75 125.196 268.81C125.116 281.819 125.116 281.819 121.589 286.429C120.504 287.578 119.378 288.662 118.248 289.739C117.764 290.671 117.279 291.602 116.78 292.562C116.052 292.562 115.325 292.562 114.576 292.562C112.446 285.682 111.537 279.922 111.592 272.454C111.599 271.282 111.606 270.111 111.613 268.904C111.621 268.019 111.63 267.134 111.638 266.222C111.154 266.222 110.669 266.222 110.169 266.222C110.186 266.789 110.203 267.357 110.221 267.941C110.234 268.693 110.248 269.445 110.261 270.22C110.278 270.962 110.295 271.704 110.313 272.469C110.157 274.883 109.645 276.373 108.7 278.451C107.973 278.451 107.246 278.451 106.497 278.451C105.69 261.948 105.69 261.948 109.94 255.282C111.36 251.996 111.36 249.139 110.904 245.526C110.011 241.84 108.868 238.317 107.691 234.767C104.668 225.519 102.549 217.45 102.687 207.368C102.688 206.376 102.688 206.376 102.688 205.364C102.723 200.032 103.231 194.887 103.812 189.609C104.154 183.649 102.639 179.706 100.516 174.48C97.1881 165.833 96.11 156.16 94.7457 146.751C93.9137 149.865 93.0897 152.982 92.2669 156.1C92.034 156.971 91.8011 157.842 91.5611 158.74C88.9896 168.518 87.8965 176.904 87.9519 187.261C87.9462 188.326 87.9405 189.391 87.9347 190.489C87.9375 192.05 87.9375 192.05 87.9404 193.644C87.9429 195.041 87.9429 195.041 87.9454 196.466C88.335 202.544 89.8895 208.202 91.3803 213.968C93.3373 221.797 94.626 229.671 95.7097 237.765C95.8041 238.459 95.8985 239.153 95.9958 239.868C99.1267 263.156 96.7086 281.867 91.7117 304.388C90.3036 310.757 89.0371 317.085 88.1355 323.605C84.283 324.685 80.4974 324.903 76.5677 325.134C75.4983 325.206 75.4983 325.206 74.4074 325.281C73.7304 325.322 73.0535 325.363 72.356 325.406C71.4276 325.463 71.4276 325.463 70.4804 325.522C69.0395 325.486 69.0395 325.486 68.305 324.546C68.2854 321.366 68.3252 318.198 68.3982 315.019C68.4422 311.268 68.2516 307.913 67.5878 304.254C66.5673 298.279 66.5996 292.274 66.5373 286.187C66.8933 266.757 66.8933 266.757 63.1638 248.348C61.3169 259.029 60.6183 269.233 60.5472 280.156C60.479 288.412 60.4002 296.399 59.0663 304.516C58.6347 307.524 58.7229 310.388 58.8488 313.434C58.9641 321.912 57.3747 329.634 55.3572 337.675C54.421 344.277 55.4303 349.043 57.2881 355.119C60.4212 366.238 60.0439 375.905 58.3582 387.493C56.8998 400.105 58.2201 413.73 60.2259 426.143C60.4683 426.453 60.7107 426.763 60.9604 427.083C61.0987 428.765 61.1987 430.452 61.2817 432.14C61.6088 437.774 62.3099 443.178 63.1638 448.72C64.1333 443.442 65.1027 438.165 66.1016 432.728C69.9796 432.728 73.8575 432.728 77.853 432.728C78.1532 434.078 78.4533 435.429 78.7625 436.821C80.1742 442.853 82.0475 448.591 83.9511 454.39C84.2062 455.184 84.4614 455.978 84.7243 456.797C84.9564 457.505 85.1885 458.214 85.4277 458.944C85.9321 460.949 85.9321 460.949 85.9321 464.712C81.4358 466.734 77.3108 466.867 72.5712 466.843C71.7901 466.845 71.009 466.847 70.2043 466.848C68.5592 466.85 66.9141 466.846 65.2691 466.838C62.7563 466.828 60.244 466.838 57.7313 466.85C56.129 466.849 54.5266 466.847 52.9243 466.843C52.176 466.847 51.4276 466.851 50.6566 466.855C46.9444 466.823 43.8705 466.608 40.3954 464.712C40.7351 459.966 42.0456 456.172 43.5468 451.882C47.8095 439.596 49.6479 430.918 45.9039 417.853C44.2433 412.488 42.2961 407.297 40.3495 402.096C32.395 380.605 31.9105 362.262 37.4575 339.597C40.5921 322.901 35.1764 305.03 31.8571 289C31.6422 287.959 31.4274 286.917 31.206 285.844C31.0132 284.918 30.8203 283.991 30.6216 283.036C25.9363 258.135 30.8126 229.287 37.3112 205.564C42.5684 185.802 37.1035 164.434 31.5818 145.811C31.5184 146.587 31.455 147.363 31.3896 148.162C30.3737 158.858 28.5997 169.511 24.329 178.912C22.4519 183.473 22.729 186.811 23.1929 191.843C24.572 207.275 23.815 220.871 19.096 235.178C15.6887 244.326 15.6887 244.326 16.1581 253.992C16.7651 255.036 17.3778 256.074 17.9943 257.108C21.237 263.105 20.5006 271.44 20.5649 278.451C19.5954 278.14 18.6259 277.83 17.627 277.51C17.1423 275.337 16.6575 273.164 16.1581 270.925C14.4553 273.106 14.804 278.716 14.5701 281.806C14.2476 285.695 13.8204 288.985 12.4858 292.562C9.36902 292.101 7.23785 289.732 5.14116 286.917C1.3992 280.159 1.28015 274.059 1.19342 266.045C1.16596 265.101 1.13851 264.157 1.11022 263.184C1.05426 257.064 1.82809 253.519 4.36294 248.365C5.59433 245.361 5.17115 243.13 4.63622 239.882C2.47677 224.014 2.03183 206.065 7.48226 191.259C10.4733 182.354 9.03008 171.158 8.07901 161.803C7.96546 159.826 7.88684 157.846 7.84949 155.864C7.82204 154.917 7.79458 153.97 7.76629 152.994C8.05859 149.797 8.61285 147.687 9.54507 144.738C11.2889 138.923 11.3321 133.69 11.2923 127.525C11.4021 118.488 11.8029 111.839 16.1581 104.419C16.6732 103.488 17.1882 102.557 17.7188 101.597C23.1094 96.7941 29.6147 95.6813 35.9666 94.3454C41.0525 93.1703 45.3762 90.5816 49.9434 87.4864C49.9647 84.3899 49.9778 81.2935 49.9893 78.1969C49.9986 76.8745 49.9986 76.8745 50.008 75.5254C50.0115 74.2612 50.0115 74.2613 50.0151 72.9715C50.0209 71.804 50.0209 71.804 50.0268 70.6129C50.0415 68.6119 50.0415 68.6119 49.209 66.7908C49.1794 64.5961 49.1772 62.4004 49.209 60.2058C48.7242 60.2058 48.2395 60.2058 47.74 60.2058C46.19 54.9944 45.3638 50.8008 45.5366 45.1544C45.4211 44.5748 45.3056 43.9951 45.1866 43.3979C43.9278 36.8283 44.3696 30.2797 47.0056 24.4588C53.4977 13.9424 65.911 13.0896 74.9266 18.6308Z" fill="#F4654B"/>
<path d="M63.1638 247.407C64.8708 250.687 65.2969 253.593 65.7804 257.402C65.8764 258.156 65.9725 258.909 66.0714 259.686C67.1341 269.126 67.1952 278.664 67.2925 288.185C67.3688 294.442 67.6098 300.337 68.7173 306.445C69.2613 310.004 69.1958 313.525 69.1314 317.137C69.1011 319.582 69.0708 322.027 69.0396 324.546C75.3412 324.235 81.6429 323.925 88.1356 323.605C88.1659 325.642 88.1962 327.679 88.2274 329.778C88.4502 336.628 89.6507 342.845 91.1194 349.416C96.1852 372.66 90.663 390.099 83.008 411.196C79.845 420.051 78.6091 427.734 78.5876 437.431C78.3452 437.431 78.1028 437.431 77.8531 437.431C77.8531 435.879 77.8531 434.327 77.8531 432.727C73.9751 432.727 70.0972 432.727 66.1017 432.727C65.577 438.055 65.074 443.386 64.5869 448.719C64.5201 449.448 64.4534 450.177 64.3846 450.928C64.2223 452.7 64.0603 454.473 63.8983 456.245C63.6559 456.245 63.4136 456.245 63.1638 456.245C62.6697 452.268 62.1817 448.289 61.6949 444.31C61.5548 443.183 61.4147 442.056 61.2703 440.894C61.1378 439.806 61.0052 438.718 60.8687 437.596C60.7456 436.596 60.6225 435.596 60.4957 434.566C60.226 431.787 60.226 431.787 60.2285 429.269C60.2249 426.161 59.4377 423.473 58.7571 420.498C57.1585 408.782 56.2856 396.511 58.0226 384.751C59.673 373.218 59.2365 363.894 55.9182 353.04C53.7952 345.982 53.8963 340.537 55.7733 333.247C57.5449 325.75 58.0955 318.65 57.9767 310.846C57.9396 307.827 58.2292 305.191 58.7399 302.248C59.9169 294.262 59.774 286.134 59.8267 278.033C60.0322 251.418 60.0322 251.418 63.1638 247.407Z" fill="#F4654B"/>
<path d="M63.1638 247.407C64.8708 250.687 65.2969 253.593 65.7804 257.402C65.8764 258.156 65.9725 258.909 66.0714 259.686C67.1341 269.126 67.1952 278.664 67.2925 288.185C67.3693 294.466 67.6181 300.376 68.7302 306.507C69.2246 309.778 69.0724 312.945 68.9477 316.256C68.8309 321.844 69.2552 326.657 70.5085 332.012C72.8491 342.22 72.2289 348.289 69.1801 358.224C66.8446 366.257 66.9751 374.945 68.3051 383.281C70.0402 395.25 71.1872 415.014 66.7845 426.271C65.9698 428.362 65.9963 429.647 66.1017 431.963C66.1741 435.761 65.7244 438.952 65.0086 442.62C64.2875 447.104 64.1273 451.683 63.8983 456.245C63.6559 456.245 63.4136 456.245 63.1638 456.245C62.6697 452.268 62.1817 448.289 61.6949 444.31C61.5548 443.183 61.4147 442.056 61.2703 440.894C61.1378 439.806 61.0052 438.718 60.8687 437.596C60.7456 436.596 60.6225 435.596 60.4957 434.566C60.226 431.787 60.226 431.787 60.2285 429.269C60.2249 426.161 59.4377 423.473 58.7571 420.498C57.1585 408.782 56.2856 396.511 58.0226 384.751C59.673 373.218 59.2365 363.894 55.9182 353.04C53.7952 345.982 53.8963 340.537 55.7733 333.247C57.5449 325.75 58.0955 318.65 57.9767 310.846C57.9396 307.827 58.2292 305.191 58.7399 302.248C59.9169 294.262 59.774 286.134 59.8267 278.033C60.0322 251.418 60.0322 251.418 63.1638 247.407Z" fill="white"/>
<path d="M107.231 261.518C107.474 261.518 107.716 261.518 107.966 261.518C107.966 265.243 107.966 268.968 107.966 272.806C108.451 273.117 108.935 273.427 109.435 273.747C108.708 274.212 108.708 274.212 107.966 274.688C107.966 275.929 107.966 277.171 107.966 278.45C107.481 278.45 106.996 278.45 106.497 278.45C106.477 275.805 106.463 273.159 106.451 270.513C106.445 269.758 106.439 269.003 106.432 268.226C106.426 266.303 106.459 264.38 106.497 262.458C106.739 262.148 106.982 261.837 107.231 261.518Z" fill="#F4654B"/>
<path d="M15.4239 266.221C15.6663 266.221 15.9087 266.221 16.1584 266.221C16.4008 269.015 16.6431 271.809 16.8928 274.687C16.1657 274.998 15.4386 275.308 14.6895 275.628C14.9318 272.523 15.1742 269.419 15.4239 266.221Z" fill="white"/>
<rect y="98" width="130" height="68" fill="white" fill-opacity="0.7"/>
</svg>
