<svg width="130" height="476" viewBox="0 0 130 476" fill="none" xmlns="http://www.w3.org/2000/svg">
<path d="M74.9266 18.6308C78.2582 21.2011 80.5008 24.3451 81.8926 29.0447C83.6449 38.5836 82.4034 51.3338 79.322 60.2058C78.8372 60.2058 78.3525 60.2058 77.853 60.2058C77.8833 61.2341 77.9136 62.2624 77.9448 63.3219C77.853 66.7908 77.853 66.7908 76.3841 69.6129C76.1828 71.5218 76.1828 71.5218 76.2406 73.5926C76.2454 74.3474 76.2501 75.1023 76.255 75.88C76.2673 76.664 76.2796 77.448 76.2923 78.2557C76.2989 79.0506 76.3055 79.8455 76.3124 80.6644C76.3297 82.625 76.356 84.5854 76.3841 86.5457C83.1031 91.7473 89.7838 94.5959 97.4999 96.4232C103.46 97.9047 107.53 99.0763 111.133 105.595C115.306 113.986 115.541 120.835 115.16 130.469C115.031 136.243 115.743 140.142 117.58 145.394C118.683 149.186 118.593 152.807 118.478 156.805C118.471 157.56 118.464 158.315 118.456 159.093C118.392 163.518 118.037 167.771 117.514 172.15C116.803 181.541 118.134 188.396 120.842 196.932C124.791 209.524 124.252 224.409 122.259 237.556C121.567 242.316 121.174 245.991 123.387 250.185C125.639 255.033 125.258 260.21 125.18 265.692C125.185 266.721 125.19 267.75 125.196 268.81C125.116 281.819 125.116 281.819 121.589 286.429C120.504 287.578 119.378 288.662 118.248 289.739C117.764 290.671 117.279 291.602 116.78 292.562C116.052 292.562 115.325 292.562 114.576 292.562C112.446 285.682 111.537 279.922 111.592 272.454C111.599 271.282 111.606 270.111 111.613 268.904C111.621 268.019 111.63 267.134 111.638 266.222C111.154 266.222 110.669 266.222 110.169 266.222C110.186 266.789 110.203 267.357 110.221 267.941C110.234 268.693 110.248 269.445 110.261 270.22C110.278 270.962 110.295 271.704 110.313 272.469C110.157 274.883 109.645 276.373 108.7 278.451C107.973 278.451 107.246 278.451 106.497 278.451C105.69 261.948 105.69 261.948 109.94 255.282C111.36 251.996 111.36 249.139 110.904 245.526C110.011 241.84 108.868 238.317 107.691 234.767C104.668 225.519 102.549 217.45 102.687 207.368C102.688 206.376 102.688 206.376 102.688 205.364C102.723 200.032 103.231 194.887 103.812 189.609C104.154 183.649 102.639 179.706 100.516 174.48C97.1881 165.833 96.11 156.16 94.7457 146.751C93.9137 149.865 93.0897 152.982 92.2669 156.1C92.034 156.971 91.8011 157.842 91.5611 158.74C88.9896 168.518 87.8965 176.904 87.9519 187.261C87.9462 188.326 87.9405 189.391 87.9347 190.489C87.9375 192.05 87.9375 192.05 87.9404 193.644C87.9429 195.041 87.9429 195.041 87.9454 196.466C88.335 202.544 89.8895 208.202 91.3803 213.968C93.3373 221.797 94.626 229.671 95.7097 237.765C95.8041 238.459 95.8985 239.153 95.9958 239.868C99.1267 263.156 96.7086 281.867 91.7117 304.388C90.3036 310.757 89.0371 317.085 88.1355 323.605C84.283 324.685 80.4974 324.903 76.5677 325.134C75.4983 325.206 75.4983 325.206 74.4074 325.281C73.7304 325.322 73.0535 325.363 72.356 325.406C71.4276 325.463 71.4276 325.463 70.4804 325.522C69.0395 325.486 69.0395 325.486 68.305 324.546C68.2854 321.366 68.3252 318.198 68.3982 315.019C68.4422 311.268 68.2516 307.913 67.5878 304.254C66.5673 298.279 66.5996 292.274 66.5373 286.187C66.8933 266.757 66.8933 266.757 63.1638 248.348C61.3169 259.029 60.6183 269.233 60.5472 280.156C60.479 288.412 60.4002 296.399 59.0663 304.516C58.6347 307.524 58.7229 310.388 58.8488 313.434C58.9641 321.912 57.3747 329.634 55.3572 337.675C54.421 344.277 55.4303 349.043 57.2881 355.119C60.4212 366.238 60.0439 375.905 58.3582 387.493C56.8998 400.105 58.2201 413.73 60.2259 426.143C60.4683 426.453 60.7107 426.763 60.9604 427.083C61.0987 428.765 61.1987 430.452 61.2817 432.14C61.6088 437.774 62.3099 443.178 63.1638 448.72C64.1333 443.442 65.1027 438.165 66.1016 432.728C69.9796 432.728 73.8575 432.728 77.853 432.728C78.1532 434.078 78.4533 435.429 78.7625 436.821C80.1742 442.853 82.0475 448.591 83.9511 454.39C84.2062 455.184 84.4614 455.978 84.7243 456.797C84.9564 457.505 85.1885 458.214 85.4277 458.944C85.9321 460.949 85.9321 460.949 85.9321 464.712C81.4358 466.734 77.3108 466.867 72.5712 466.843C71.7901 466.845 71.009 466.847 70.2043 466.848C68.5592 466.85 66.9141 466.846 65.2691 466.838C62.7563 466.828 60.244 466.838 57.7313 466.85C56.129 466.849 54.5266 466.847 52.9243 466.843C52.176 466.847 51.4276 466.851 50.6566 466.855C46.9444 466.823 43.8705 466.608 40.3954 464.712C40.7351 459.966 42.0456 456.172 43.5468 451.882C47.8095 439.596 49.6479 430.918 45.9039 417.853C44.2433 412.488 42.2961 407.297 40.3495 402.096C32.395 380.605 31.9105 362.262 37.4575 339.597C40.5921 322.901 35.1764 305.03 31.8571 289C31.6422 287.959 31.4274 286.917 31.206 285.844C31.0132 284.918 30.8203 283.991 30.6216 283.036C25.9363 258.135 30.8126 229.287 37.3112 205.564C42.5684 185.802 37.1035 164.434 31.5818 145.811C31.5184 146.587 31.455 147.363 31.3896 148.162C30.3737 158.858 28.5997 169.511 24.329 178.912C22.4519 183.473 22.729 186.811 23.1929 191.843C24.572 207.275 23.815 220.871 19.096 235.178C15.6887 244.326 15.6887 244.326 16.1581 253.992C16.7651 255.036 17.3778 256.074 17.9943 257.108C21.237 263.105 20.5006 271.44 20.5649 278.451C19.5954 278.14 18.6259 277.83 17.627 277.51C17.1423 275.337 16.6575 273.164 16.1581 270.925C14.4553 273.106 14.804 278.716 14.5701 281.806C14.2476 285.695 13.8204 288.985 12.4858 292.562C9.36902 292.101 7.23785 289.732 5.14116 286.917C1.3992 280.159 1.28015 274.059 1.19342 266.045C1.16596 265.101 1.13851 264.157 1.11022 263.184C1.05426 257.064 1.82809 253.519 4.36294 248.365C5.59433 245.361 5.17115 243.13 4.63622 239.882C2.47677 224.014 2.03183 206.065 7.48226 191.259C10.4733 182.354 9.03008 171.158 8.07901 161.803C7.96546 159.826 7.88684 157.846 7.84949 155.864C7.82204 154.917 7.79458 153.97 7.76629 152.994C8.05859 149.797 8.61285 147.687 9.54507 144.738C11.2889 138.923 11.3321 133.69 11.2923 127.525C11.4021 118.488 11.8029 111.839 16.1581 104.419C16.6732 103.488 17.1882 102.557 17.7188 101.597C23.1094 96.7941 29.6147 95.6813 35.9666 94.3454C41.0525 93.1703 45.3762 90.5816 49.9434 87.4864C49.9647 84.3899 49.9778 81.2935 49.9893 78.1969C49.9986 76.8745 49.9986 76.8745 50.008 75.5254C50.0115 74.2612 50.0115 74.2613 50.0151 72.9715C50.0209 71.804 50.0209 71.804 50.0268 70.6129C50.0415 68.6119 50.0415 68.6119 49.209 66.7908C49.1794 64.5961 49.1772 62.4004 49.209 60.2058C48.7242 60.2058 48.2395 60.2058 47.74 60.2058C46.19 54.9944 45.3638 50.8008 45.5366 45.1544C45.4211 44.5748 45.3056 43.9951 45.1866 43.3979C43.9278 36.8283 44.3696 30.2797 47.0056 24.4588C53.4977 13.9424 65.911 13.0896 74.9266 18.6308Z" fill="#F4654B"/>
<path d="M63.1637 247.407C64.8706 250.687 65.2967 253.593 65.7803 257.402C65.8763 258.156 65.9723 258.909 66.0713 259.686C67.134 269.126 67.1951 278.664 67.2924 288.185C67.3687 294.442 67.6097 300.337 68.7172 306.445C69.2612 310.004 69.1957 313.525 69.1312 317.137C69.1009 319.582 69.0706 322.027 69.0394 324.546C75.3411 324.235 81.6428 323.925 88.1355 323.605C88.1658 325.642 88.1961 327.679 88.2273 329.778C88.4501 336.628 89.6506 342.845 91.1192 349.416C96.1851 372.66 90.6628 390.099 83.0079 411.196C79.8449 420.051 78.6089 427.734 78.5875 437.431C78.3451 437.431 78.1027 437.431 77.853 437.431C77.853 435.879 77.853 434.327 77.853 432.727C73.975 432.727 70.0971 432.727 66.1016 432.727C65.5769 438.055 65.0739 443.386 64.5867 448.719C64.52 449.448 64.4533 450.177 64.3845 450.928C64.2222 452.7 64.0602 454.473 63.8982 456.245C63.6558 456.245 63.4134 456.245 63.1637 456.245C62.6695 452.268 62.1816 448.289 61.6948 444.31C61.5547 443.183 61.4146 442.056 61.2702 440.894C61.1376 439.806 61.0051 438.718 60.8685 437.596C60.7454 436.596 60.6224 435.596 60.4956 434.566C60.2259 431.787 60.2259 431.787 60.2284 429.269C60.2248 426.161 59.4375 423.473 58.7569 420.498C57.1584 408.782 56.2854 396.511 58.0225 384.751C59.6729 373.218 59.2364 363.894 55.9181 353.04C53.7951 345.982 53.8962 340.537 55.7732 333.247C57.5448 325.75 58.0954 318.65 57.9766 310.846C57.9395 307.827 58.2291 305.191 58.7397 302.248C59.9168 294.262 59.7738 286.134 59.8265 278.033C60.0321 251.418 60.0321 251.418 63.1637 247.407Z" fill="#F4654B"/>
<path d="M63.1637 247.407C64.8706 250.687 65.2967 253.593 65.7803 257.402C65.8763 258.156 65.9723 258.909 66.0713 259.686C67.134 269.126 67.1951 278.664 67.2924 288.185C67.3691 294.466 67.6179 300.376 68.7301 306.507C69.2245 309.778 69.0722 312.945 68.9476 316.256C68.8308 321.844 69.255 326.657 70.5084 332.012C72.849 342.22 72.2288 348.289 69.18 358.224C66.8444 366.257 66.975 374.945 68.305 383.281C70.04 395.25 71.1871 415.014 66.7844 426.271C65.9697 428.362 65.9962 429.647 66.1016 431.963C66.174 435.761 65.7243 438.952 65.0085 442.62C64.2873 447.104 64.1272 451.683 63.8982 456.245C63.6558 456.245 63.4134 456.245 63.1637 456.245C62.6695 452.268 62.1816 448.289 61.6948 444.31C61.5547 443.183 61.4146 442.056 61.2702 440.894C61.1376 439.806 61.0051 438.718 60.8685 437.596C60.7454 436.596 60.6224 435.596 60.4956 434.566C60.2259 431.787 60.2259 431.787 60.2284 429.269C60.2248 426.161 59.4375 423.473 58.7569 420.498C57.1584 408.782 56.2854 396.511 58.0225 384.751C59.6729 373.218 59.2364 363.894 55.9181 353.04C53.7951 345.982 53.8962 340.537 55.7732 333.247C57.5448 325.75 58.0954 318.65 57.9766 310.846C57.9395 307.827 58.2291 305.191 58.7397 302.248C59.9168 294.262 59.7738 286.134 59.8265 278.033C60.0321 251.418 60.0321 251.418 63.1637 247.407Z" fill="white"/>
<path d="M107.232 261.518C107.474 261.518 107.716 261.518 107.966 261.518C107.966 265.243 107.966 268.968 107.966 272.806C108.451 273.117 108.936 273.427 109.435 273.747C108.708 274.212 108.708 274.212 107.966 274.688C107.966 275.929 107.966 277.171 107.966 278.45C107.481 278.45 106.997 278.45 106.497 278.45C106.478 275.805 106.463 273.159 106.451 270.513C106.445 269.758 106.439 269.003 106.433 268.226C106.426 266.303 106.459 264.38 106.497 262.458C106.74 262.148 106.982 261.837 107.232 261.518Z" fill="#F4654B"/>
<path d="M15.4237 266.221C15.666 266.221 15.9084 266.221 16.1581 266.221C16.4005 269.015 16.6429 271.809 16.8926 274.687C16.1655 274.998 15.4384 275.308 14.6892 275.628C14.9316 272.523 15.174 269.419 15.4237 266.221Z" fill="white"/>
<path d="M46.6355 26.995C44.7394 24.4271 48.1119 13.7367 53.0122 11.5591C57.9132 9.38151 61.1801 10.5141 61.1801 10.5141C61.1801 10.5141 65.9903 7.31271 68.4408 10.2202C68.4408 10.2202 71.1632 9.32397 74.5216 11.7048C77.8793 14.0857 79.3317 13.5629 80.3298 12.9531C80.3298 12.9531 81.7816 15.0432 80.3298 16.6111C80.3298 16.6111 84.4941 17.9125 84.7766 22.7949C85.0939 28.2821 86.9999 28.6305 86.9999 28.6305C86.9999 28.6305 82.5986 30.2853 76.2453 24.7981C59.0808 25.1188 46.6355 26.995 46.6355 26.995Z" fill="#F8B1A6"/>
<path d="M83.4612 26.6978C85.3672 30.4164 83.4612 37.8629 83.4612 37.8629C83.4612 37.8629 83.697 42.3501 81.9329 44.9987L81.5098 38.4721L82.0543 24.7979L83.4612 26.6978Z" fill="#F8B1A6"/>
<path d="M46.7405 21.1826C46.7405 21.1826 43.4474 21.4084 42.6241 26.0876C41.8009 30.7668 44.5868 35.0632 42 36.2096C42 36.2096 43.1394 37.2064 44.1618 36.5648C44.1618 36.5648 44.4325 42.521 45.6042 44.9995L46.7405 28.5254V21.1826Z" fill="#F8B1A6"/>
<path d="M51.6136 26.3709C52.2427 27.858 48.2931 31.0406 48.2931 32.5503C48.2931 34.06 47.3043 34.1876 47.4661 36.6785C47.6279 39.1695 45.5707 28.8961 45.6311 28.8655C45.6914 28.8349 46.1756 27.1169 47.4462 26.6979C48.7169 26.2795 51.6136 26.3709 51.6136 26.3709Z" fill="#F8B1A6"/>
<path d="M51.1132 27.5215C51.6209 27.1506 55.0092 26.9223 58.4578 28.8654C61.9064 30.8085 66.1416 28.6021 66.1416 28.6021C66.1416 28.6021 69.8509 29.8948 73.8253 27.9636C73.8253 27.9636 74.8284 28.9549 77.2136 29.6659C79.5988 30.377 78.3629 33.0731 79.1495 33.9442C79.936 34.8154 80.4407 36.8617 79.6137 38.4515L82.4544 33.8861C82.4544 33.8861 81.5701 25.467 78.9684 24.3639C76.3667 23.2607 72.3132 23.5508 67.2909 23.841C62.2692 24.1312 52.2861 24.7991 52.2861 24.7991L51.1132 27.5215Z" fill="#F8B1A6"/>
<path d="M51.1897 24.7982C51.1897 24.7982 51.0459 24.6668 50.8082 24.4273C50.5867 24.1734 50.2581 23.8025 49.9545 23.3054C49.6458 22.81 49.3521 22.1903 49.1306 21.4911C49.046 21.1359 48.9246 20.7725 48.8929 20.3866C48.8269 20.0052 48.8325 19.6105 48.8207 19.2165C48.8642 18.8244 48.8798 18.4279 48.9862 18.0508C49.0516 17.6649 49.209 17.3103 49.3434 16.9657C49.4859 16.6237 49.6863 16.3191 49.8574 16.0289C50.0646 15.7581 50.2544 15.4992 50.4529 15.2809C50.6626 15.0708 50.8624 14.8876 51.0378 14.7268C51.2158 14.5686 51.3975 14.4573 51.5319 14.3535C51.8107 14.1546 51.9743 14.0508 51.9743 14.0508C51.9743 14.0508 51.8511 14.2028 51.6284 14.4523C51.5201 14.5792 51.372 14.7175 51.2357 14.9032C51.1032 15.0921 50.9544 15.3028 50.7846 15.523C50.6321 15.7556 50.4952 16.0227 50.3272 16.2878C50.2009 16.5742 50.054 16.8694 49.9401 17.1865C49.835 17.508 49.7298 17.8375 49.6732 18.1853C49.5823 18.5261 49.5817 18.8869 49.5456 19.2415C49.55 19.5993 49.5344 19.9576 49.5879 20.3097C49.6135 20.6631 49.6881 21.0064 49.7485 21.3416C49.8424 21.6687 49.9053 21.9952 50.0167 22.291C50.1094 22.593 50.2264 22.8688 50.3266 23.129C50.5469 23.6412 50.7516 24.0608 50.9208 24.3466C51.0969 24.6306 51.1897 24.7982 51.1897 24.7982Z" fill="#F8B1A6"/>
<path d="M50.5755 17.5234C50.5755 17.5234 50.5401 17.6679 50.4778 17.9212C50.433 18.1726 50.3658 18.5241 50.3559 18.9518C50.3391 19.3758 50.3627 19.868 50.4735 20.3771C50.5096 20.6348 50.6091 20.8881 50.6838 21.1482C50.7753 21.4053 50.8767 21.6623 51.0124 21.9068C51.1206 22.1626 51.2874 22.3921 51.428 22.6285C51.606 22.8424 51.7336 23.0876 51.924 23.2796C52.1013 23.4797 52.2619 23.6854 52.4467 23.8543C52.6253 24.0282 52.784 24.2058 52.9563 24.3446C53.1225 24.4928 53.2743 24.6285 53.4087 24.7492C53.5519 24.8631 53.6763 24.9625 53.779 25.0444C53.9825 25.217 54.0982 25.3158 54.0982 25.3158C54.0982 25.3158 53.9545 25.2602 53.7031 25.1626C53.4486 25.0663 53.0957 24.9075 52.7006 24.6611C52.4934 24.5516 52.2917 24.3996 52.0796 24.237C51.8586 24.0838 51.6514 23.8918 51.4442 23.6848C51.2252 23.4891 51.0429 23.2445 50.8481 23.0063C50.6826 22.748 50.4903 22.4959 50.3596 22.2108C50.2159 21.9318 50.1082 21.6385 50.0142 21.3458C49.9321 21.0513 49.8643 20.7548 49.8425 20.4653C49.7989 20.177 49.8176 19.8949 49.8245 19.6316C49.8537 19.3677 49.8805 19.1201 49.9446 18.8981C50.0435 18.4503 50.2208 18.1019 50.3453 17.868C50.4859 17.6454 50.5755 17.5234 50.5755 17.5234Z" fill="#F8B1A6"/>
<path d="M61.604 14.663C61.604 14.663 61.6525 14.6068 61.7446 14.5004C61.8473 14.4035 61.9463 14.219 62.1665 14.0627C62.2717 13.9776 62.3874 13.8838 62.5138 13.7812C62.6463 13.6874 62.7994 13.6024 62.9593 13.5017C63.1167 13.3948 63.3003 13.3153 63.4932 13.2259C63.6843 13.1308 63.8933 13.0508 64.1173 12.9851C64.5592 12.8319 65.0551 12.7162 65.5847 12.6305C66.1142 12.5436 66.6817 12.4873 67.2679 12.4948C67.8535 12.4961 68.462 12.5242 69.07 12.6236C69.3755 12.6643 69.6811 12.7199 69.9841 12.7931C70.2903 12.8525 70.5914 12.9388 70.8914 13.0289C71.4912 13.2096 72.0693 13.4554 72.6219 13.73C73.1757 14.0208 73.6493 14.356 74.1328 14.6249C74.6007 14.8725 75.0855 15.0983 75.5627 15.2465C76.0406 15.3898 76.5098 15.4904 76.9492 15.5067C77.8266 15.558 78.5745 15.4104 79.0549 15.2096C79.5453 15.0233 79.7811 14.8269 79.7811 14.8269C79.7811 14.8269 79.727 14.8794 79.6262 14.9776C79.5173 15.0671 79.3567 15.2065 79.1171 15.331C78.6517 15.588 77.8975 15.8876 76.9417 15.8982C75.9878 15.922 74.8814 15.6887 73.8104 15.1546C73.2983 14.8888 72.7918 14.5849 72.2933 14.3241C71.7775 14.0764 71.2342 13.8544 70.6686 13.6912C70.388 13.6024 70.1067 13.5173 69.818 13.4579C69.533 13.3847 69.2455 13.3278 68.9567 13.2859C68.383 13.1884 67.8105 13.1246 67.2542 13.1052C66.1441 13.0602 65.0968 13.1377 64.235 13.3578C64.0153 13.401 63.8149 13.4685 63.6233 13.5342C63.4304 13.5949 63.2431 13.648 63.0831 13.7293C62.9201 13.8044 62.7602 13.8675 62.6227 13.9401C62.4907 14.0208 62.3694 14.0952 62.2599 14.1621C62.0303 14.2859 61.8878 14.4467 61.772 14.5255C61.6625 14.6155 61.604 14.663 61.604 14.663Z" fill="#F8B1A6"/>
<path d="M60.6711 24.4588C60.6711 24.4588 60.5193 24.3488 60.2654 24.1455C60.1347 24.0479 59.9922 23.9135 59.8342 23.7446C59.6705 23.5814 59.4832 23.3925 59.327 23.1605C59.2424 23.0467 59.1546 22.9285 59.0638 22.8059C58.9879 22.6746 58.9088 22.5389 58.8279 22.3994C58.655 22.1236 58.5268 21.809 58.3886 21.4845C58.2729 21.1543 58.1428 20.8103 58.0713 20.4482C57.9916 20.0867 57.93 19.7165 57.907 19.3394C57.8722 18.9647 57.902 18.5845 57.9263 18.2155C57.968 17.844 58.0377 17.4832 58.1503 17.1424C58.2275 16.794 58.4141 16.4869 58.5479 16.1911C58.7365 15.9166 58.8796 15.6389 59.0986 15.44C59.1982 15.3362 59.294 15.2362 59.3849 15.1417C59.4813 15.0529 59.5927 14.9879 59.6854 14.9178C59.8758 14.7809 60.037 14.6627 60.1963 14.6008C60.5 14.4588 60.6717 14.3906 60.6717 14.3906C60.6717 14.3906 60.5274 14.5157 60.2766 14.7127C60.1422 14.7996 60.0146 14.946 59.8696 15.1086C59.7122 15.2593 59.5778 15.4619 59.4334 15.6796C59.2685 15.8828 59.182 16.1599 59.0383 16.4138C58.9518 16.6971 58.8205 16.9785 58.7688 17.2974C58.6836 17.607 58.6624 17.9385 58.6245 18.2731C58.6114 18.6089 58.5915 18.9535 58.6307 19.2956C58.6431 19.6402 58.6923 19.9816 58.7576 20.3162C58.8205 20.6502 58.9032 20.9779 58.9935 21.2912C59.1067 21.597 59.1845 21.9072 59.3164 22.1793C59.4291 22.4601 59.5504 22.7196 59.6805 22.9516C59.7987 23.193 59.9262 23.3969 60.0426 23.5814C60.1521 23.769 60.261 23.931 60.3674 24.0529C60.5653 24.3069 60.6711 24.4588 60.6711 24.4588Z" fill="#F8B1A6"/>
<path d="M68.8601 27.9712C68.8601 27.9712 68.7923 27.9587 68.6653 27.9343C68.5403 27.9093 68.3498 27.8699 68.1208 27.7892C67.6635 27.6323 67.0194 27.3289 66.3835 26.7774C65.7568 26.2251 65.1495 25.4127 64.8483 24.3984C64.5459 23.3908 64.6007 22.1939 65.0767 21.1601C65.3057 20.6423 65.6125 20.1594 65.9734 19.7367C66.3181 19.3283 66.7649 18.9268 67.2117 18.6416C68.1302 18.0456 69.1694 17.8199 70.0237 17.8148C70.8862 17.8048 71.5763 17.9862 72.0374 18.1344C72.5022 18.2826 72.7406 18.424 72.7406 18.424C72.7406 18.424 72.4711 18.3564 71.9994 18.287C71.5284 18.2201 70.8445 18.1757 70.0567 18.2701C69.2727 18.3652 68.3803 18.6322 67.6068 19.1857C67.2073 19.4653 66.867 19.7692 66.5359 20.1732C66.2148 20.5572 65.9311 20.9768 65.7263 21.4296C65.521 21.8818 65.3897 22.3602 65.3337 22.8405C65.2827 23.3221 65.3262 23.803 65.427 24.2576C65.6374 25.1695 66.1233 25.9543 66.651 26.5247C67.1781 27.1019 67.7475 27.4747 68.1712 27.6792C68.5919 27.8912 68.8601 27.9712 68.8601 27.9712Z" fill="#F8B1A6"/>
<path d="M70.6922 27.9714C70.6922 27.9714 70.5566 27.9864 70.3201 27.9983C70.2019 27.982 70.0488 27.9664 69.8752 27.9288C69.7177 27.8744 69.5211 27.8319 69.3357 27.7381C68.9486 27.5724 68.5385 27.3034 68.149 26.9601C67.9661 26.7794 67.7619 26.5993 67.6008 26.381C67.4303 26.1684 67.2722 25.942 67.1378 25.6987C66.9941 25.4623 66.9076 25.1934 66.8074 24.9413C66.7358 24.6755 66.6661 24.4148 66.6612 24.1502C66.6232 23.89 66.6618 23.6355 66.6972 23.3985C66.7172 23.1602 66.8317 22.9507 66.8926 22.7568C66.9723 22.5667 67.0936 22.4135 67.1789 22.2734C67.2561 22.1277 67.3836 22.0389 67.4614 21.952C67.6313 21.7862 67.7302 21.7012 67.7302 21.7012C67.7302 21.7012 67.6761 21.8206 67.5809 22.0295C67.5386 22.1339 67.4589 22.244 67.4259 22.3954C67.3892 22.5442 67.3239 22.6999 67.2903 22.8769C67.2809 23.0602 67.2218 23.2453 67.2368 23.4491C67.2411 23.6524 67.2461 23.8619 67.2959 24.0777C67.3139 24.2959 67.416 24.5079 67.4732 24.7306C67.5684 24.9438 67.6462 25.169 67.7788 25.3716C67.8877 25.5861 68.0196 25.7887 68.1646 25.9814C68.3039 26.1759 68.457 26.3597 68.6076 26.5342C68.9219 26.8738 69.2436 27.1715 69.5485 27.3954C69.6978 27.513 69.8503 27.5911 69.9797 27.6831C70.1173 27.7519 70.2374 27.8119 70.3363 27.8613C70.5628 27.9313 70.6922 27.9714 70.6922 27.9714Z" fill="#F8B1A6"/>
<path d="M56.9139 20.2236C56.9139 20.2236 56.9108 20.2737 56.9058 20.3668C56.9083 20.4594 56.8759 20.5995 56.8996 20.769C56.9101 21.1036 57.006 21.5832 57.1846 22.1336C57.2767 22.4075 57.3918 22.7008 57.5268 23.0022C57.6656 23.3043 57.8261 23.6133 58.0134 23.9228C58.1808 24.2424 58.4241 24.5332 58.6344 24.8453C58.8759 25.138 59.1093 25.4457 59.3955 25.7077C59.6506 25.9985 59.9593 26.2349 60.2492 26.4826C60.5566 26.7071 60.8628 26.9303 61.1752 27.1211C61.5056 27.2793 61.7974 27.4944 62.1185 27.6101C62.4371 27.7271 62.7228 27.8909 63.014 27.9666C63.3021 28.0498 63.5659 28.1374 63.8024 28.2162C64.042 28.2756 64.256 28.3112 64.4315 28.3487C64.7831 28.4225 64.9866 28.4744 64.9866 28.4744C64.9866 28.4744 64.7812 28.4844 64.4166 28.4832C64.2349 28.4788 64.0109 28.4844 63.7557 28.4707C63.5031 28.4394 63.2162 28.4031 62.9032 28.3512C62.5859 28.3143 62.2654 28.188 61.9138 28.0904C61.5585 27.9985 61.2218 27.8096 60.856 27.6508C60.5087 27.4613 60.1503 27.2537 59.8149 27.0085C59.4932 26.7465 59.1516 26.4938 58.8684 26.1836C58.5641 25.8916 58.3171 25.5545 58.0638 25.2318C57.8367 24.8928 57.6127 24.5563 57.4497 24.2055C57.2648 23.8647 57.1348 23.5151 57.0215 23.1811C56.9077 22.8484 56.8336 22.5226 56.7813 22.2218C56.6737 21.6183 56.706 21.1029 56.7608 20.7483C56.7695 20.5695 56.8479 20.4488 56.8678 20.3575C56.8977 20.2712 56.9139 20.2236 56.9139 20.2236Z" fill="#F8B1A6"/>
<path d="M56.2343 24.5369C56.2343 24.5369 56.177 24.4662 56.0694 24.333C55.9698 24.1942 55.7844 24.0197 55.6251 23.7408C55.5392 23.6045 55.444 23.4537 55.3401 23.2899C55.2511 23.1185 55.1553 22.9334 55.0526 22.7352C54.8597 22.3343 54.6531 21.8696 54.5106 21.3405C54.4241 21.0791 54.3563 20.8021 54.2984 20.5113C54.2268 20.223 54.1814 19.9209 54.1422 19.6082C54.0514 18.984 54.0302 18.3155 54.0719 17.6244C54.1403 16.9371 54.2343 16.2173 54.4913 15.5212C54.7141 14.8171 55.0862 14.1385 55.5585 13.5294C56.0152 12.9209 56.7103 12.4205 57.332 12.0703C58.0519 11.6776 58.8142 11.5275 59.5497 11.4775C60.2853 11.428 60.9797 11.5162 61.6157 11.6032C62.2535 11.6857 62.8478 11.7801 63.3947 11.8052C63.943 11.8427 64.4414 11.817 64.8857 11.7745C65.1047 11.7332 65.3088 11.6951 65.4986 11.6588C65.6865 11.6144 65.8514 11.5488 66.0058 11.5025C66.3181 11.4162 66.5353 11.2823 66.6984 11.2198C66.8577 11.1485 66.9423 11.1104 66.9423 11.1104C66.9423 11.1104 66.8645 11.1598 66.7183 11.2529C66.5658 11.3342 66.3698 11.5106 66.0611 11.6275C65.9099 11.6913 65.7469 11.7764 65.559 11.8427C65.3667 11.9002 65.1589 11.9628 64.9367 12.0291C64.4831 12.1247 63.9566 12.2073 63.3841 12.1967C62.241 12.2173 60.9243 11.9734 59.6001 12.0885C58.9455 12.146 58.2716 12.333 57.7066 12.6388C57.5578 12.7095 57.4029 12.8289 57.2498 12.9227L57.0196 13.0722C56.9934 13.1003 56.9026 13.1766 56.8466 13.2267C56.7203 13.3405 56.5859 13.4462 56.4651 13.5656L56.1335 13.954C55.7122 14.4875 55.3668 15.0904 55.1559 15.7345C54.9176 16.3687 54.7912 17.0322 54.7079 17.677C54.6556 18.3255 54.6201 18.9597 54.6674 19.5607C54.6842 19.8615 54.7072 20.1542 54.757 20.4343C54.7931 20.717 54.8398 20.9878 54.9057 21.2442C55.0159 21.7614 55.1609 22.228 55.3021 22.637C55.3799 22.8396 55.4527 23.0297 55.5199 23.2048C55.6021 23.3737 55.6773 23.5288 55.7458 23.6695C55.8734 23.9553 56.0227 24.1623 56.1024 24.3111C56.1882 24.4587 56.2343 24.5369 56.2343 24.5369Z" fill="#F8B1A6"/>
<path d="M57.8267 22.6582C57.8267 22.6582 57.8585 22.7689 57.9412 22.929C58.0271 23.0922 58.1522 23.3211 58.3245 23.5794C58.6687 24.096 59.1733 24.7389 59.7738 25.2924C60.3606 25.859 61.0314 26.3486 61.5622 26.7039C61.8254 26.8865 62.0544 27.0297 62.2162 27.1335C62.3768 27.2398 62.4676 27.3074 62.4676 27.3074C62.4676 27.3074 62.3562 27.2955 62.1621 27.2617C61.9673 27.2292 61.6885 27.1767 61.3718 27.0597C61.21 27.0091 61.0358 26.9478 60.864 26.8596C60.6892 26.777 60.4969 26.6982 60.322 26.58C59.9536 26.3699 59.5902 26.096 59.2623 25.7864C58.9387 25.4731 58.6481 25.1266 58.4285 24.7695C58.1988 24.4199 58.0476 24.0572 57.9456 23.7433C57.841 23.4293 57.8099 23.151 57.8006 22.959C57.7956 22.7595 57.8267 22.6582 57.8267 22.6582Z" fill="#F8B1A6"/>
<path d="M56.1528 25.3145C56.1528 25.3145 56.3414 25.6597 56.7334 26.043C56.9251 26.2382 57.1646 26.447 57.4335 26.6559C57.7029 26.8635 57.9979 27.0787 58.3115 27.2713C58.6158 27.4771 58.9362 27.6666 59.2393 27.8448C59.5386 28.0299 59.8323 28.185 60.0756 28.3407C60.5741 28.6259 60.9007 28.8642 60.9007 28.8642C60.9007 28.8642 60.7999 28.8586 60.6257 28.8373C60.4527 28.8123 60.2007 28.7848 59.9126 28.7085C59.6239 28.6328 59.286 28.5402 58.9437 28.3889C58.594 28.2544 58.2437 28.0593 57.9033 27.8473C57.5704 27.6247 57.2499 27.377 56.9929 27.0987C56.8541 26.9711 56.7502 26.816 56.6426 26.6828C56.5442 26.5396 56.454 26.4045 56.3899 26.2663C56.2487 26.0005 56.1833 25.7554 56.1603 25.5834C56.1373 25.412 56.1528 25.3145 56.1528 25.3145Z" fill="#F8B1A6"/>
<path d="M46.1941 23.5752C46.1941 23.5752 46.1562 23.6083 46.0859 23.6696C46.0205 23.739 45.962 23.8466 45.8985 23.9992C45.7722 24.3038 45.7343 24.7835 45.7007 25.3526C45.6434 26.4958 45.6839 28.0411 45.6011 29.5965C45.5134 31.1481 45.3037 32.7278 44.8307 33.8473C44.6055 34.4082 44.295 34.8291 44.0454 35.0812C43.7915 35.3351 43.5862 35.402 43.598 35.4133C43.598 35.4133 43.6316 35.3764 43.6945 35.3076C43.7629 35.245 43.8395 35.1343 43.9347 34.9967C44.1251 34.7191 44.2974 34.2744 44.4331 33.7266C44.7063 32.6265 44.794 31.0968 44.8762 29.5608C44.9633 28.0242 45.0442 26.4676 45.2881 25.3032C45.4063 24.7228 45.5768 24.2425 45.7722 23.9392C45.9732 23.6215 46.2059 23.5814 46.1941 23.5752Z" fill="#F8B1A6"/>
<path d="M43.9783 25.3145C43.9783 25.3145 43.8837 25.6747 43.8358 26.1812C43.781 26.6891 43.7854 27.3589 43.8258 28.0343C43.8395 28.3732 43.8744 28.7128 43.8943 29.0355C43.9217 29.3576 43.9428 29.6616 43.959 29.9255C43.9945 30.4521 43.9783 30.8242 43.9783 30.8242C43.9783 30.8242 43.7599 30.5177 43.552 30.013C43.333 29.5127 43.1476 28.8035 43.1009 28.0718C43.0922 27.7053 43.094 27.3363 43.16 26.9924C43.2141 26.649 43.3125 26.3332 43.4344 26.0781C43.6684 25.5565 43.9783 25.3145 43.9783 25.3145Z" fill="#F8B1A6"/>
<path d="M49.5787 28.1572C49.5787 28.1572 49.4076 28.2792 49.1382 28.5137C49.0044 28.63 48.8469 28.7707 48.6845 28.9558C48.5109 29.1278 48.3522 29.3542 48.16 29.5794C47.9901 29.8239 47.8003 30.0809 47.6329 30.3742C47.4481 30.6557 47.3087 30.984 47.1444 31.308C46.9994 31.6432 46.8638 31.9921 46.7536 32.3574C46.6173 32.7138 46.5607 33.1003 46.4692 33.4743C46.4188 33.8577 46.3255 34.236 46.3187 34.6188C46.3043 34.8095 46.29 34.9984 46.2757 35.1854C46.2757 35.373 46.2757 35.5588 46.2757 35.7414C46.2689 36.1072 46.2888 36.4612 46.3193 36.7977C46.3379 37.1354 46.3678 37.4543 46.4176 37.747C46.4655 38.0397 46.4842 38.3149 46.5259 38.5538C46.5725 38.7927 46.6136 39.0015 46.6472 39.1729C46.7126 39.5181 46.7406 39.7207 46.7406 39.7207C46.7406 39.7207 46.6516 39.5388 46.5116 39.2117C46.3734 38.8846 46.1618 38.4174 46.0081 37.8245C45.9652 37.6776 45.9204 37.5237 45.8737 37.3649C45.8439 37.2023 45.8128 37.0347 45.7804 36.8621C45.7119 36.5168 45.6472 36.1497 45.6354 35.7639C45.5987 35.3799 45.5869 34.9803 45.618 34.5744C45.618 34.1673 45.7051 33.7589 45.7543 33.3474C45.86 32.9452 45.9316 32.5343 46.0853 32.1516C46.2079 31.7595 46.3933 31.3968 46.5669 31.0459C46.7592 30.7038 46.9509 30.3749 47.178 30.0928C47.384 29.797 47.6267 29.5512 47.8413 29.3223C48.2981 28.8827 48.7331 28.5831 49.0579 28.4017C49.2116 28.2998 49.3522 28.261 49.4393 28.2166C49.5308 28.1779 49.5787 28.1572 49.5787 28.1572Z" fill="#F8B1A6"/>
<path d="M50.094 29.1328C50.094 29.1328 49.6384 29.4399 49.0803 29.9796C48.7984 30.246 48.5003 30.5787 48.2178 30.9533C48.0753 31.1403 47.9428 31.3411 47.8202 31.5518C47.6802 31.7532 47.5868 31.9821 47.4779 32.2022C47.3653 32.4218 47.2962 32.6588 47.2035 32.8833C47.1375 33.1178 47.0722 33.3486 47.0094 33.5719C46.9745 33.8014 46.9309 34.024 46.8893 34.2366C46.8525 34.4499 46.8494 34.6557 46.8233 34.8458C46.7679 35.2273 46.7866 35.5493 46.7673 35.7789C46.7505 36.0103 46.7412 36.1428 46.7412 36.1428C46.7412 36.1428 46.6945 36.0196 46.6242 35.7976C46.5626 35.575 46.4369 35.256 46.4064 34.8552C46.3858 34.6557 46.3417 34.4374 46.3479 34.206C46.3541 33.9746 46.3572 33.7276 46.3784 33.473C46.4275 33.2229 46.4618 32.9577 46.5302 32.6963C46.6242 32.4418 46.6945 32.1728 46.814 31.9227C46.944 31.6769 47.0598 31.4243 47.2234 31.2016C47.3653 30.9665 47.5489 30.7651 47.7219 30.57C47.8911 30.3717 48.0915 30.211 48.2707 30.0546C48.4599 29.9077 48.6403 29.772 48.8227 29.6682C49.5327 29.2254 50.094 29.1328 50.094 29.1328Z" fill="#F8B1A6"/>
<path d="M71.8758 25.6277C71.8758 25.6277 71.8366 25.5558 71.7626 25.422C71.696 25.2844 71.5902 25.0811 71.5056 24.8066C71.3351 24.2637 71.154 23.4288 71.3413 22.4295C71.4421 21.9354 71.6282 21.4026 71.9648 20.9041C72.2977 20.4082 72.7794 19.9435 73.3811 19.6364C73.9772 19.3181 74.6655 19.1486 75.3587 19.0761C76.0475 19.0192 76.7706 19.0511 77.4526 19.1743C78.1707 19.3006 78.8546 19.5983 79.419 20.0361C79.984 20.4738 80.3885 21.0348 80.7008 21.5827C81.0194 22.1311 81.2547 22.6784 81.4762 23.1899C81.699 23.7009 81.9149 24.1756 82.1439 24.5977C82.6006 25.4413 83.0848 26.0905 83.4998 26.4864C83.9068 26.8879 84.175 27.0893 84.175 27.0893C84.175 27.0893 84.1028 27.0474 83.9671 26.9686C83.8302 26.8916 83.6342 26.7684 83.4015 26.5896C82.9416 26.2318 82.3082 25.6477 81.7805 24.7959C81.2341 23.9604 80.7488 22.9048 80.1383 21.8941C79.8247 21.3944 79.4476 20.926 78.9772 20.5645C78.508 20.2037 77.923 19.9729 77.3207 19.8547C76.6829 19.7309 76.0488 19.6996 75.4178 19.7415C74.7961 19.789 74.19 19.9141 73.6717 20.1693C73.1521 20.4176 72.7059 20.7659 72.3855 21.1837C72.0588 21.5977 71.8541 22.0655 71.7277 22.5126C71.4844 23.4151 71.5243 24.23 71.6369 24.7747C71.6898 25.0499 71.7489 25.2631 71.7962 25.4076C71.8484 25.5514 71.8758 25.6277 71.8758 25.6277Z" fill="#F8B1A6"/>
<path d="M76.1433 18.0278C76.1433 18.0278 76.3032 17.9953 76.5851 17.9565C76.8701 17.9302 77.287 17.8883 77.7892 17.9634C78.0381 18.0047 78.3125 18.0553 78.5863 18.1623C78.8608 18.2605 79.1507 18.3855 79.4127 18.5625C79.6865 18.7264 79.941 18.9296 80.1868 19.1479C80.4183 19.3774 80.6535 19.6113 80.8539 19.8683C81.0667 20.1185 81.2335 20.3937 81.4139 20.6551C81.59 20.9184 81.7207 21.1992 81.8694 21.4581C82.1314 21.9922 82.3486 22.5006 82.4942 22.9484C82.6597 23.3893 82.7456 23.7733 82.814 24.0378C82.8744 24.3049 82.9086 24.4581 82.9086 24.4581C82.9086 24.4581 82.8252 24.3236 82.6796 24.0885C82.5427 23.8521 82.3473 23.5144 82.1127 23.1091C81.8837 22.7032 81.6031 22.2423 81.3075 21.7502C80.9908 21.2717 80.6697 20.7539 80.2801 20.2942C80.1016 20.051 79.8943 19.8364 79.6921 19.6232C79.4755 19.4281 79.2752 19.2179 79.0456 19.0622C78.8259 18.8927 78.5957 18.7508 78.3673 18.6351C78.1395 18.5156 77.9099 18.4281 77.6934 18.3499C77.2559 18.2048 76.862 18.1441 76.5864 18.0935C76.3038 18.0516 76.1433 18.0278 76.1433 18.0278Z" fill="#F8B1A6"/>
<path d="M81.0947 18.5098C81.0947 18.5098 81.2186 18.511 81.4289 18.5667C81.6361 18.6255 81.9329 18.7368 82.2434 18.9488C82.4009 19.0526 82.557 19.1821 82.7076 19.3347C82.857 19.4866 83.007 19.6586 83.1351 19.8506C83.3977 20.2327 83.6068 20.6818 83.7431 21.1446C83.8234 21.3747 83.8576 21.6117 83.9043 21.8431C83.9603 22.0739 83.9659 22.3053 83.9827 22.5267C84.0287 22.9707 83.9858 23.3847 83.9652 23.7362C83.9615 23.9125 83.9186 24.0714 83.8962 24.2127C83.87 24.3534 83.8476 24.476 83.829 24.5773C83.7898 24.7787 83.7599 24.8925 83.7599 24.8925C83.7599 24.8925 83.7419 24.775 83.7232 24.5717C83.7151 24.4704 83.7051 24.3472 83.6933 24.2065C83.6771 24.0658 83.6778 23.9075 83.6529 23.7362C83.6031 23.3941 83.5875 22.9945 83.506 22.5767C83.4761 22.3666 83.4407 22.1508 83.3872 21.9363C83.338 21.7212 83.2994 21.4991 83.2204 21.2909C83.1059 20.8594 82.9229 20.4529 82.7257 20.0883C82.5153 19.7318 82.2889 19.4097 82.0412 19.1764C81.5639 18.6868 81.0947 18.5098 81.0947 18.5098Z" fill="#F8B1A6"/>
<path d="M74.9635 22.6582C74.9635 22.6582 74.8764 22.7301 74.7183 22.8464C74.5933 22.9834 74.4277 23.1641 74.3133 23.4418C74.1919 23.7064 74.1129 24.0378 74.1085 24.3968C74.0867 24.5738 74.1272 24.7608 74.1384 24.9459C74.167 25.1323 74.2019 25.3205 74.2697 25.5025C74.3083 25.6914 74.406 25.8652 74.4732 26.0441C74.5796 26.2061 74.635 26.3943 74.7532 26.5425C74.8615 26.6957 74.9498 26.8583 75.0681 26.9903C75.1813 27.1248 75.2753 27.268 75.3892 27.3774C75.4968 27.4956 75.5951 27.6044 75.6822 27.7007C75.7781 27.7921 75.8608 27.8715 75.9299 27.9371C76.0656 28.0779 76.1434 28.1579 76.1434 28.1579C76.1434 28.1579 76.0363 28.1241 75.8503 28.0522C75.6598 27.9859 75.3991 27.869 75.1129 27.677C74.8229 27.4937 74.5062 27.2323 74.2305 26.8952C74.0811 26.7351 73.9685 26.5369 73.8459 26.343C73.7538 26.1335 73.6325 25.929 73.5746 25.7001C73.5031 25.4756 73.4676 25.2436 73.4427 25.0134C73.4296 24.7827 73.4302 24.5531 73.475 24.3349C73.4981 24.1147 73.5821 23.9109 73.6524 23.722C73.747 23.5381 73.8353 23.3668 73.961 23.2329C74.0637 23.0872 74.2075 22.989 74.3182 22.8996C74.4408 22.8152 74.569 22.7658 74.6574 22.7226C74.8503 22.6776 74.9635 22.6582 74.9635 22.6582Z" fill="#F8B1A6"/>
<path d="M73.0575 23.5752C73.0575 23.5752 73.0724 23.8647 73.1359 24.27C73.1645 24.4726 73.2068 24.704 73.2603 24.9454C73.3238 25.1843 73.3867 25.4376 73.4937 25.6734C73.5789 25.9179 73.7115 26.1412 73.8397 26.3494C73.9728 26.5539 74.111 26.7447 74.251 26.8942C74.5136 27.2112 74.7469 27.4007 74.7364 27.4132C74.7364 27.4132 74.6642 27.3957 74.541 27.3513C74.4203 27.3038 74.2336 27.2487 74.0457 27.1205C73.9467 27.0636 73.8397 26.998 73.7463 26.9073C73.6493 26.8204 73.5348 26.7359 73.4514 26.6196C73.261 26.4057 73.0973 26.1424 72.9859 25.8623C72.8733 25.5815 72.8092 25.2875 72.7868 25.0111C72.7669 24.7347 72.7824 24.4776 72.8241 24.2625C72.9063 23.8316 73.0575 23.5752 73.0575 23.5752Z" fill="#F8B1A6"/>
<path d="M79.7806 28.4756C79.7806 28.4756 79.7787 28.5231 79.7743 28.6119C79.7799 28.6995 79.7445 28.8339 79.7775 28.9934C79.8098 29.156 79.8123 29.3342 79.8845 29.5556C79.9442 29.7739 80.0083 30.0166 80.0979 30.283C80.4339 31.3443 80.9722 32.7433 81.4053 34.1923C81.6119 34.9184 81.8129 35.6507 81.9305 36.3568C82.0095 36.7039 82.0276 37.056 82.0693 37.3799C82.0979 37.7083 82.0941 38.0241 82.0929 38.3111C82.0599 38.6026 82.0462 38.8671 81.9834 39.0973C81.9087 39.3262 81.8658 39.5263 81.7917 39.6789C81.615 39.9772 81.5098 40.1298 81.5098 40.1298C81.5098 40.1298 81.5609 39.939 81.6573 39.6376C81.694 39.4831 81.6922 39.2818 81.7152 39.0654C81.7251 38.8459 81.681 38.5913 81.6766 38.323C81.6324 38.051 81.5895 37.7583 81.5322 37.4494C81.4563 37.1404 81.3985 36.8165 81.3045 36.4806C81.1315 35.8108 80.9262 35.0966 80.7077 34.383C80.2858 32.9528 79.8577 31.5019 79.6928 30.368C79.6393 30.0891 79.6294 29.8214 79.6188 29.5888C79.5945 29.3611 79.6331 29.1379 79.6393 28.9746C79.6393 28.8052 79.7202 28.6913 79.737 28.6044C79.765 28.5206 79.7806 28.4756 79.7806 28.4756Z" fill="#F8B1A6"/>
<path d="M81.0948 30.8252C81.0948 30.8252 81.3038 31.2761 81.6181 31.9522C81.928 32.6251 82.3206 33.5463 82.5328 34.5388C82.6343 35.0335 82.7002 35.5425 82.6872 36.0247C82.6859 36.505 82.6063 36.9566 82.4868 37.3243C82.4439 37.5113 82.3542 37.6714 82.292 37.814C82.2341 37.9584 82.1576 38.0735 82.0929 38.1661C81.9666 38.3524 81.89 38.4512 81.89 38.4512C81.89 38.4512 81.9149 38.3287 81.9591 38.1141C81.9865 38.011 82.012 37.8846 82.0263 37.737C82.0406 37.5901 82.0767 37.4312 82.0773 37.2517C82.0985 36.8965 82.0966 36.4869 82.0487 36.0479C82.04 35.829 81.9809 35.6032 81.9604 35.3731C81.9162 35.1435 81.8826 34.9103 81.8228 34.6776C81.6293 33.7445 81.3599 32.8027 81.2223 32.0691C81.1489 31.7051 81.1128 31.3881 81.0979 31.1692C81.0917 30.9515 81.0948 30.8252 81.0948 30.8252Z" fill="#F8B1A6"/>
<path d="M63.0595 18.3096C63.0595 18.3096 62.973 18.4065 62.8225 18.5766C62.698 18.7561 62.5294 19.0019 62.3968 19.3396C62.255 19.6673 62.1517 20.0707 62.0981 20.5041C62.0596 20.7198 62.0701 20.9468 62.0577 21.1745C62.072 21.4021 62.0664 21.636 62.1181 21.8643C62.1629 22.329 62.324 22.7724 62.4734 23.1895C62.5773 23.3859 62.6407 23.596 62.749 23.7736C62.8592 23.9487 62.9363 24.1345 63.0427 24.2846C63.1479 24.4353 63.24 24.5798 63.3221 24.7098C63.4149 24.8324 63.4958 24.9394 63.563 25.0269C63.6949 25.2108 63.7702 25.3158 63.7702 25.3158C63.7702 25.3158 63.6569 25.2514 63.4628 25.1263C63.2612 25.0082 62.9998 24.808 62.7142 24.5291C62.5636 24.3965 62.436 24.2227 62.2892 24.0463C62.1398 23.8712 62.0247 23.6573 61.8934 23.4434C61.7876 23.2183 61.6607 22.9869 61.586 22.7349C61.5088 22.4828 61.4348 22.2252 61.4006 21.9581C61.3527 21.6942 61.3645 21.4234 61.3589 21.1607C61.3757 20.8968 61.4087 20.6392 61.4721 20.3953C61.5144 20.1482 61.6209 19.9225 61.7042 19.7098C61.8057 19.5009 61.9077 19.3089 62.034 19.1476C62.2593 18.8149 62.5418 18.5985 62.7353 18.4665C62.9376 18.3621 63.0595 18.3096 63.0595 18.3096Z" fill="#F8B1A6"/>
<path d="M62.7366 19.9541C62.7366 19.9541 62.6376 20.1955 62.5903 20.5407C62.5418 20.8866 62.5356 21.3306 62.6364 21.769C62.675 21.9898 62.7434 22.208 62.8087 22.415C62.8747 22.6227 62.9506 22.8153 63.0129 22.9873C63.0776 23.1605 63.1317 23.305 63.169 23.4063C63.207 23.5101 63.2226 23.5745 63.2226 23.5745C63.2226 23.5745 63.1678 23.5376 63.0813 23.4638C63.0035 23.385 62.8598 23.2899 62.7415 23.1373C62.6127 22.991 62.4765 22.8084 62.3645 22.5901C62.2456 22.3756 62.1585 22.1255 62.1012 21.8672C62.0527 21.6076 62.039 21.3375 62.0794 21.0892C62.1124 20.8409 62.2008 20.6183 62.2954 20.4438C62.4995 20.0942 62.7366 19.9541 62.7366 19.9541Z" fill="#F8B1A6"/>
<path d="M61.426 22.4617C61.426 22.4617 61.309 22.1847 61.1814 21.6744C61.1198 21.4192 61.0501 21.1071 61.0028 20.7425C60.9475 20.3792 60.9101 19.962 60.9363 19.5042C60.9468 19.0458 61.0333 18.5493 61.1814 18.0296C61.3743 17.5286 61.6145 16.9726 62.0825 16.5505C62.5081 16.0915 63.1067 15.7913 63.7228 15.5774C64.0358 15.4923 64.3594 15.4436 64.6811 15.3766C65.0146 15.336 65.3033 15.3185 65.617 15.2885C66.2585 15.2622 66.9032 15.266 67.5267 15.3354C68.1552 15.3885 68.76 15.5424 69.3319 15.6987C70.4719 16.0439 71.4314 16.5286 72.2945 16.8163C72.7251 16.9645 73.1228 17.0921 73.4831 17.184C73.8409 17.2891 74.1638 17.3348 74.427 17.3917C74.9616 17.4736 75.2671 17.5205 75.2671 17.5205C75.2671 17.5205 74.9578 17.5349 74.4115 17.5261C74.1408 17.503 73.806 17.4974 73.4289 17.4379C73.0494 17.3942 72.6218 17.3154 72.1701 17.1897C71.2603 16.9508 70.241 16.573 69.1546 16.2878C68.6082 16.1571 68.0401 16.0527 67.4539 16.0039C66.8665 15.9458 66.271 15.9526 65.6773 15.9814C65.3755 16.0064 65.0457 16.0246 64.7688 16.0552C64.4888 16.1127 64.2019 16.1503 63.93 16.2191C63.4092 16.4023 62.8952 16.6112 62.533 16.9827C62.1354 17.316 61.889 17.7656 61.6774 18.1978C61.5081 18.6512 61.3862 19.1034 61.3407 19.5349C61.2878 19.9639 61.2661 20.3667 61.2692 20.7238C61.2661 21.0815 61.2922 21.3942 61.3183 21.6512C61.3706 22.1678 61.426 22.4617 61.426 22.4617Z" fill="#F8B1A6"/>
</svg>
